<svg id="visual" viewBox="0 0 900 125" width="900" height="125" xmlns="http://www.w3.org/2000/svg" xmlns:xlink="http://www.w3.org/1999/xlink" version="1.1"><rect x="0" y="0" width="900" height="125" fill="#009d76"></rect><path d="M0 32L75 29L150 33L225 41L300 25L375 27L450 37L525 29L600 26L675 38L750 35L825 34L900 41L900 126L825 126L750 126L675 126L600 126L525 126L450 126L375 126L300 126L225 126L150 126L75 126L0 126Z" fill="#009d76"></path><path d="M0 55L75 50L150 65L225 57L300 58L375 58L450 63L525 48L600 56L675 55L750 57L825 62L900 55L900 126L825 126L750 126L675 126L600 126L525 126L450 126L375 126L300 126L225 126L150 126L75 126L0 126Z" fill="#146d57"></path><path d="M0 81L75 75L150 85L225 79L300 73L375 85L450 74L525 86L600 77L675 80L750 84L825 85L900 83L900 126L825 126L750 126L675 126L600 126L525 126L450 126L375 126L300 126L225 126L150 126L75 126L0 126Z" fill="#194037"></path><path d="M0 105L75 95L150 108L225 108L300 102L375 101L450 101L525 94L600 110L675 101L750 102L825 109L900 96L900 126L825 126L750 126L675 126L600 126L525 126L450 126L375 126L300 126L225 126L150 126L75 126L0 126Z" fill="#141817"></path></svg>