<svg id="visual" viewBox="0 0 900 70" width="900" height="70" xmlns="http://www.w3.org/2000/svg" xmlns:xlink="http://www.w3.org/1999/xlink" version="1.1"><path d="M0 10L10.7 10.8C21.3 11.7 42.7 13.3 64.2 14.3C85.7 15.3 107.3 15.7 128.8 19.2C150.3 22.7 171.7 29.3 193 30.7C214.3 32 235.7 28 257 24C278.3 20 299.7 16 321.2 16.5C342.7 17 364.3 22 385.8 22C407.3 22 428.7 17 450 15C471.3 13 492.7 14 514.2 14C535.7 14 557.3 13 578.8 13.7C600.3 14.3 621.7 16.7 643 16.7C664.3 16.7 685.7 14.3 707 15C728.3 15.7 749.7 19.3 771.2 19.3C792.7 19.3 814.3 15.7 835.8 13.7C857.3 11.7 878.7 11.3 889.3 11.2L900 11L900 0L889.3 0C878.7 0 857.3 0 835.8 0C814.3 0 792.7 0 771.2 0C749.7 0 728.3 0 707 0C685.7 0 664.3 0 643 0C621.7 0 600.3 0 578.8 0C557.3 0 535.7 0 514.2 0C492.7 0 471.3 0 450 0C428.7 0 407.3 0 385.8 0C364.3 0 342.7 0 321.2 0C299.7 0 278.3 0 257 0C235.7 0 214.3 0 193 0C171.7 0 150.3 0 128.8 0C107.3 0 85.7 0 64.2 0C42.7 0 21.3 0 10.7 0L0 0Z" fill="#141817"></path><path d="M0 21L10.7 21.2C21.3 21.3 42.7 21.7 64.2 21.7C85.7 21.7 107.3 21.3 128.8 24.5C150.3 27.7 171.7 34.3 193 35.8C214.3 37.3 235.7 33.7 257 30.3C278.3 27 299.7 24 321.2 24.7C342.7 25.3 364.3 29.7 385.8 29.8C407.3 30 428.7 26 450 23.8C471.3 21.7 492.7 21.3 514.2 20.8C535.7 20.3 557.3 19.7 578.8 21C600.3 22.3 621.7 25.7 643 25.2C664.3 24.7 685.7 20.3 707 20.2C728.3 20 749.7 24 771.2 25.5C792.7 27 814.3 26 835.8 24.7C857.3 23.3 878.7 21.7 889.3 20.8L900 20L900 9L889.3 9.2C878.7 9.3 857.3 9.7 835.8 11.7C814.3 13.7 792.7 17.3 771.2 17.3C749.7 17.3 728.3 13.7 707 13C685.7 12.3 664.3 14.7 643 14.7C621.7 14.7 600.3 12.3 578.8 11.7C557.3 11 535.7 12 514.2 12C492.7 12 471.3 11 450 13C428.7 15 407.3 20 385.8 20C364.3 20 342.7 15 321.2 14.5C299.7 14 278.3 18 257 22C235.7 26 214.3 30 193 28.7C171.7 27.3 150.3 20.7 128.8 17.2C107.3 13.7 85.7 13.3 64.2 12.3C42.7 11.3 21.3 9.7 10.7 8.8L0 8Z" fill="#156753"></path><path d="M0 52L10.7 52C21.3 52 42.7 52 64.2 50.7C85.7 49.3 107.3 46.7 128.8 46.8C150.3 47 171.7 50 193 51.3C214.3 52.7 235.7 52.3 257 52.2C278.3 52 299.7 52 321.2 50.3C342.7 48.7 364.3 45.3 385.8 45.7C407.3 46 428.7 50 450 52C471.3 54 492.7 54 514.2 51.8C535.7 49.7 557.3 45.3 578.8 44.2C600.3 43 621.7 45 643 47.3C664.3 49.7 685.7 52.3 707 51.8C728.3 51.3 749.7 47.7 771.2 47.7C792.7 47.7 814.3 51.3 835.8 52C857.3 52.7 878.7 50.3 889.3 49.2L900 48L900 18L889.3 18.8C878.7 19.7 857.3 21.3 835.8 22.7C814.3 24 792.7 25 771.2 23.5C749.7 22 728.3 18 707 18.2C685.7 18.3 664.3 22.7 643 23.2C621.7 23.7 600.3 20.3 578.8 19C557.3 17.7 535.7 18.3 514.2 18.8C492.7 19.3 471.3 19.7 450 21.8C428.7 24 407.3 28 385.8 27.8C364.3 27.7 342.7 23.3 321.2 22.7C299.7 22 278.3 25 257 28.3C235.7 31.7 214.3 35.3 193 33.8C171.7 32.3 150.3 25.7 128.8 22.5C107.3 19.3 85.7 19.7 64.2 19.7C42.7 19.7 21.3 19.3 10.7 19.2L0 19Z" fill="#009d75"></path><path d="M0 65L10.7 65C21.3 65 42.7 65 64.2 63.5C85.7 62 107.3 59 128.8 57.8C150.3 56.7 171.7 57.3 193 58.3C214.3 59.3 235.7 60.7 257 60.7C278.3 60.7 299.7 59.3 321.2 59.2C342.7 59 364.3 60 385.8 61.5C407.3 63 428.7 65 450 65.3C471.3 65.7 492.7 64.3 514.2 62.3C535.7 60.3 557.3 57.7 578.8 57.5C600.3 57.3 621.7 59.7 643 60.8C664.3 62 685.7 62 707 62C728.3 62 749.7 62 771.2 62.5C792.7 63 814.3 64 835.8 63.2C857.3 62.3 878.7 59.7 889.3 58.3L900 57L900 46L889.3 47.2C878.7 48.3 857.3 50.7 835.8 50C814.3 49.3 792.7 45.7 771.2 45.7C749.7 45.7 728.3 49.3 707 49.8C685.7 50.3 664.3 47.7 643 45.3C621.7 43 600.3 41 578.8 42.2C557.3 43.3 535.7 47.7 514.2 49.8C492.7 52 471.3 52 450 50C428.7 48 407.3 44 385.8 43.7C364.3 43.3 342.7 46.7 321.2 48.3C299.7 50 278.3 50 257 50.2C235.7 50.3 214.3 50.7 193 49.3C171.7 48 150.3 45 128.8 44.8C107.3 44.7 85.7 47.3 64.2 48.7C42.7 50 21.3 50 10.7 50L0 50Z" fill="#156753"></path><path d="M0 71L10.7 71C21.3 71 42.7 71 64.2 71C85.7 71 107.3 71 128.8 71C150.3 71 171.7 71 193 71C214.3 71 235.7 71 257 71C278.3 71 299.7 71 321.2 71C342.7 71 364.3 71 385.8 71C407.3 71 428.7 71 450 71C471.3 71 492.7 71 514.2 71C535.7 71 557.3 71 578.8 71C600.3 71 621.7 71 643 71C664.3 71 685.7 71 707 71C728.3 71 749.7 71 771.2 71C792.7 71 814.3 71 835.8 71C857.3 71 878.7 71 889.3 71L900 71L900 55L889.3 56.3C878.7 57.7 857.3 60.3 835.8 61.2C814.3 62 792.7 61 771.2 60.5C749.7 60 728.3 60 707 60C685.7 60 664.3 60 643 58.8C621.7 57.7 600.3 55.3 578.8 55.5C557.3 55.7 535.7 58.3 514.2 60.3C492.7 62.3 471.3 63.7 450 63.3C428.7 63 407.3 61 385.8 59.5C364.3 58 342.7 57 321.2 57.2C299.7 57.3 278.3 58.7 257 58.7C235.7 58.7 214.3 57.3 193 56.3C171.7 55.3 150.3 54.7 128.8 55.8C107.3 57 85.7 60 64.2 61.5C42.7 63 21.3 63 10.7 63L0 63Z" fill="#141817"></path></svg>