<svg id="visual" viewBox="0 0 900 125" width="900" height="125" xmlns="http://www.w3.org/2000/svg" xmlns:xlink="http://www.w3.org/1999/xlink" version="1.1">
  <rect x="0" y="0" width="900" height="225" fill="#009d76"></rect>
  <path d="M0 94L60 94L120 91L180 88L240 92L300 88L360 84L420 92L480 95L540 81L600 89L660 85L720 95L780 96L840 78L900 95L900 0L840 0L780 0L720 0L660 0L600 0L540 0L480 0L420 0L360 0L300 0L240 0L180 0L120 0L60 0L0 0Z" fill="#146d57"></path>
  <path d="M0 67L60 52L120 56L180 55L240 48L300 49L360 55L420 49L480 49L540 56L600 55L660 49L720 50L780 60L840 49L900 53L900 0L840 0L780 0L720 0L660 0L600 0L540 0L480 0L420 0L360 0L300 0L240 0L180 0L120 0L60 0L0 0Z" fill="#194037"></path>
  <path d="M0 31L60 21L120 30L180 31L240 36L300 37L360 22L420 33L480 35L540 20L600 23L660 25L720 29L780 28L840 37L900 32L900 0L840 0L780 0L720 0L660 0L600 0L540 0L480 0L420 0L360 0L300 0L240 0L180 0L120 0L60 0L0 0Z" fill="#141817"></path>
</svg>
