<svg id="visual" viewBox="0 0 900 70" width="900" height="70" xmlns="http://www.w3.org/2000/svg" xmlns:xlink="http://www.w3.org/1999/xlink" version="1.1"><path d="M0 21L82 19L164 13L245 11L327 28L409 23L491 12L573 30L655 19L736 21L818 14L900 30L900 0L818 0L736 0L655 0L573 0L491 0L409 0L327 0L245 0L164 0L82 0L0 0Z" fill="#141817"></path><path d="M0 29L82 25L164 30L245 26L327 37L409 35L491 22L573 40L655 36L736 35L818 25L900 38L900 28L818 12L736 19L655 17L573 28L491 10L409 21L327 26L245 9L164 11L82 17L0 19Z" fill="#156753"></path><path d="M0 43L82 31L164 40L245 40L327 45L409 44L491 36L573 53L655 43L736 49L818 38L900 43L900 36L818 23L736 33L655 34L573 38L491 20L409 33L327 35L245 24L164 28L82 23L0 27Z" fill="#009d75"></path><path d="M0 67L82 59L164 67L245 61L327 67L409 62L491 65L573 67L655 65L736 65L818 65L900 64L900 41L818 36L736 47L655 41L573 51L491 34L409 42L327 43L245 38L164 38L82 29L0 41Z" fill="#156753"></path><path d="M0 71L82 71L164 71L245 71L327 71L409 71L491 71L573 71L655 71L736 71L818 71L900 71L900 62L818 63L736 63L655 63L573 65L491 63L409 60L327 65L245 59L164 65L82 57L0 65Z" fill="#141817"></path></svg>