<svg id="visual" viewBox="0 0 900 125" width="900" height="125" xmlns="http://www.w3.org/2000/svg" xmlns:xlink="http://www.w3.org/1999/xlink" version="1.1"><path d="M0 35L8.3 35.2C16.7 35.3 33.3 35.7 50 35.8C66.7 36 83.3 36 100 35.2C116.7 34.3 133.3 32.7 150 31.2C166.7 29.7 183.3 28.3 200 31.5C216.7 34.7 233.3 42.3 250 46.3C266.7 50.3 283.3 50.7 300 48.8C316.7 47 333.3 43 350 42.2C366.7 41.3 383.3 43.7 400 45.5C416.7 47.3 433.3 48.7 450 46.8C466.7 45 483.3 40 500 39C516.7 38 533.3 41 550 40C566.7 39 583.3 34 600 34.2C616.7 34.3 633.3 39.7 650 43.3C666.7 47 683.3 49 700 50.5C716.7 52 733.3 53 750 52.7C766.7 52.3 783.3 50.7 800 46.7C816.7 42.7 833.3 36.3 850 38.5C866.7 40.7 883.3 51.3 891.7 56.7L900 62L900 0L891.7 0C883.3 0 866.7 0 850 0C833.3 0 816.7 0 800 0C783.3 0 766.7 0 750 0C733.3 0 716.7 0 700 0C683.3 0 666.7 0 650 0C633.3 0 616.7 0 600 0C583.3 0 566.7 0 550 0C533.3 0 516.7 0 500 0C483.3 0 466.7 0 450 0C433.3 0 416.7 0 400 0C383.3 0 366.7 0 350 0C333.3 0 316.7 0 300 0C283.3 0 266.7 0 250 0C233.3 0 216.7 0 200 0C183.3 0 166.7 0 150 0C133.3 0 116.7 0 100 0C83.3 0 66.7 0 50 0C33.3 0 16.7 0 8.3 0L0 0Z" fill="#035050"></path><path d="M0 51L8.3 52.7C16.7 54.3 33.3 57.7 50 57.3C66.7 57 83.3 53 100 51C116.7 49 133.3 49 150 48.3C166.7 47.7 183.3 46.3 200 50C216.7 53.7 233.3 62.3 250 67.7C266.7 73 283.3 75 300 71.7C316.7 68.3 333.3 59.7 350 58.3C366.7 57 383.3 63 400 66C416.7 69 433.3 69 450 67C466.7 65 483.3 61 500 60.7C516.7 60.3 533.3 63.7 550 62.8C566.7 62 583.3 57 600 57.3C616.7 57.7 633.3 63.3 650 67C666.7 70.7 683.3 72.3 700 73.5C716.7 74.7 733.3 75.3 750 75C766.7 74.7 783.3 73.3 800 69.8C816.7 66.3 833.3 60.7 850 61.8C866.7 63 883.3 71 891.7 75L900 79L900 60L891.7 54.7C883.3 49.3 866.7 38.7 850 36.5C833.3 34.3 816.7 40.7 800 44.7C783.3 48.7 766.7 50.3 750 50.7C733.3 51 716.7 50 700 48.5C683.3 47 666.7 45 650 41.3C633.3 37.7 616.7 32.3 600 32.2C583.3 32 566.7 37 550 38C533.3 39 516.7 36 500 37C483.3 38 466.7 43 450 44.8C433.3 46.7 416.7 45.3 400 43.5C383.3 41.7 366.7 39.3 350 40.2C333.3 41 316.7 45 300 46.8C283.3 48.7 266.7 48.3 250 44.3C233.3 40.3 216.7 32.7 200 29.5C183.3 26.3 166.7 27.7 150 29.2C133.3 30.7 116.7 32.3 100 33.2C83.3 34 66.7 34 50 33.8C33.3 33.7 16.7 33.3 8.3 33.2L0 33Z" fill="#168b8b"></path><path d="M0 96L8.3 97.8C16.7 99.7 33.3 103.3 50 102.5C66.7 101.7 83.3 96.3 100 93.7C116.7 91 133.3 91 150 91C166.7 91 183.3 91 200 93.2C216.7 95.3 233.3 99.7 250 101.5C266.7 103.3 283.3 102.7 300 103.2C316.7 103.7 333.3 105.3 350 104.2C366.7 103 383.3 99 400 99.5C416.7 100 433.3 105 450 105C466.7 105 483.3 100 500 99.2C516.7 98.3 533.3 101.7 550 102.3C566.7 103 583.3 101 600 100.8C616.7 100.7 633.3 102.3 650 102.7C666.7 103 683.3 102 700 103C716.7 104 733.3 107 750 106.8C766.7 106.7 783.3 103.3 800 100.8C816.7 98.3 833.3 96.7 850 98.3C866.7 100 883.3 105 891.7 107.5L900 110L900 77L891.7 73C883.3 69 866.7 61 850 59.8C833.3 58.7 816.7 64.3 800 67.8C783.3 71.3 766.7 72.7 750 73C733.3 73.3 716.7 72.7 700 71.5C683.3 70.3 666.7 68.7 650 65C633.3 61.3 616.7 55.7 600 55.3C583.3 55 566.7 60 550 60.8C533.3 61.7 516.7 58.3 500 58.7C483.3 59 466.7 63 450 65C433.3 67 416.7 67 400 64C383.3 61 366.7 55 350 56.3C333.3 57.7 316.7 66.3 300 69.7C283.3 73 266.7 71 250 65.7C233.3 60.3 216.7 51.7 200 48C183.3 44.3 166.7 45.7 150 46.3C133.3 47 116.7 47 100 49C83.3 51 66.7 55 50 55.3C33.3 55.7 16.7 52.3 8.3 50.7L0 49Z" fill="#168b8b"></path><path d="M0 126L8.3 126C16.7 126 33.3 126 50 126C66.7 126 83.3 126 100 126C116.7 126 133.3 126 150 126C166.7 126 183.3 126 200 126C216.7 126 233.3 126 250 126C266.7 126 283.3 126 300 126C316.7 126 333.3 126 350 126C366.7 126 383.3 126 400 126C416.7 126 433.3 126 450 126C466.7 126 483.3 126 500 126C516.7 126 533.3 126 550 126C566.7 126 583.3 126 600 126C616.7 126 633.3 126 650 126C666.7 126 683.3 126 700 126C716.7 126 733.3 126 750 126C766.7 126 783.3 126 800 126C816.7 126 833.3 126 850 126C866.7 126 883.3 126 891.7 126L900 126L900 108L891.7 105.5C883.3 103 866.7 98 850 96.3C833.3 94.7 816.7 96.3 800 98.8C783.3 101.3 766.7 104.7 750 104.8C733.3 105 716.7 102 700 101C683.3 100 666.7 101 650 100.7C633.3 100.3 616.7 98.7 600 98.8C583.3 99 566.7 101 550 100.3C533.3 99.7 516.7 96.3 500 97.2C483.3 98 466.7 103 450 103C433.3 103 416.7 98 400 97.5C383.3 97 366.7 101 350 102.2C333.3 103.3 316.7 101.7 300 101.2C283.3 100.7 266.7 101.3 250 99.5C233.3 97.7 216.7 93.3 200 91.2C183.3 89 166.7 89 150 89C133.3 89 116.7 89 100 91.7C83.3 94.3 66.7 99.7 50 100.5C33.3 101.3 16.7 97.7 8.3 95.8L0 94Z" fill="#035050"></path></svg>